<svg width="785" height="279" viewBox="0 0 785 279" fill="none" xmlns="http://www.w3.org/2000/svg">
<g clip-path="url(#clip0_231_7168)">
<path d="M258.026 196.792C258.026 137.765 300.242 109.191 337.868 109.191C367.398 109.191 383.301 125.411 384.602 128.337H385.578V112.442H441.745V281.142H385.578V265.247H384.602C383.301 268.173 367.398 284.393 337.868 284.393C300.206 284.393 258.026 255.855 258.026 196.792ZM349.868 234.722C370 234.722 386.879 220.778 386.879 196.756C386.879 172.733 370 158.789 349.868 158.789C329.736 158.789 313.182 173.058 313.182 196.756C313.182 220.453 330.386 234.722 349.868 234.722Z" fill="#C4FF60"/>
<path d="M463.793 53.9204H519.961V281.105H463.793V53.9204Z" fill="#C4FF60"/>
<path d="M541.54 53.9204H597.707V281.105H541.54V53.9204Z" fill="#C4FF60"/>
<path d="M672.814 279.514L603.02 112.44H660.127L699.741 215.611L739.029 112.44H796.137L700.066 342.768H645.2L672.778 279.514H672.814Z" fill="#C4FF60"/>
<path d="M757.824 266.149C757.824 259.141 763.39 253.542 770.402 253.542C777.414 253.542 782.944 259.141 782.944 266.149C782.944 273.157 777.378 278.756 770.402 278.756C763.427 278.756 757.824 273.121 757.824 266.149ZM770.402 276.083C775.968 276.083 780.233 271.676 780.233 266.113C780.233 260.55 775.968 256.106 770.402 256.106C764.836 256.106 760.535 260.55 760.535 266.113C760.535 271.676 764.8 276.083 770.402 276.083ZM765.487 260.261C765.487 260.044 765.667 259.899 765.884 259.899H771.487C774.45 259.899 776.438 261.344 776.438 264.054C776.438 266.257 775.065 267.63 772.896 268.027L776.438 271.82C776.655 272.073 776.583 272.362 776.221 272.362H774.27C774.053 272.362 773.908 272.29 773.8 272.109L770.222 268.172H767.872V271.965C767.872 272.182 767.691 272.362 767.511 272.362H765.884C765.667 272.362 765.487 272.182 765.487 271.965V260.297V260.261ZM771.559 266.077C773.185 266.077 773.908 265.21 773.908 264.054C773.908 262.825 773.185 261.995 771.559 261.995H767.836V266.113H771.559V266.077Z" fill="#C4FF60"/>
<path d="M39.5729 281.393C39.5729 281.393 23.8503 193.648 54.934 132.092C75.6445 91.0552 118.258 49.946 167.414 52.5469C199.979 54.2809 230.81 72.3068 240.352 109.37C247.545 137.33 239.159 167.747 219.75 188.915C206.16 203.726 188.413 214.6 169.004 219.874C169.004 219.874 195.642 231.47 242.449 205.316L259.906 271.278C259.906 271.278 199.473 299.202 145.33 280.815C122.053 272.904 111.463 250.037 116.27 226.629C119.053 213.119 127.258 201.884 137.342 192.781C147.39 183.677 161.052 177.789 169.402 166.591C177.751 155.392 178.329 135.235 162.462 129.816C147.318 124.651 131.234 134.26 121.475 145.675C90.4635 181.943 112.837 281.068 112.837 281.068L39.5368 281.321L39.5729 281.393Z" fill="#C4FF60"/>
</g>
<defs>
<clipPath id="clip0_231_7168">
<rect width="785" height="279" fill="white"/>
</clipPath>
</defs>
</svg>
